<svg xmlns="http://www.w3.org/2000/svg" width="122" height="57" viewBox="0 0 122 57" fill="none"><g clip-path="url(#clip0_12399_5115)"><path d="M119.443 34.9369C119.255 34.9337 119.069 34.8925 118.897 34.8159C118.724 34.7392 118.569 34.6286 118.441 34.4907C118.306 34.3773 118.196 34.2374 118.117 34.0795C118.039 33.9217 117.993 33.7494 117.984 33.5733V13.5207H110.169V16.0273C109.656 15.4872 109.072 15.0185 108.434 14.6336C107.705 14.1912 106.939 13.8137 106.143 13.5057C105.313 13.1844 104.456 12.9377 103.582 12.7687C102.738 12.5992 101.88 12.5119 101.02 12.5081C98.8921 12.5085 96.7757 12.821 94.7385 13.4355C92.8218 13.9917 91.0298 14.9107 89.4597 16.1426C87.9168 17.3793 86.667 18.9424 85.8001 20.7196C84.8395 22.7655 84.3692 25.0073 84.4265 27.2668C84.3741 29.5158 84.7801 31.7519 85.6196 33.839C85.78 34.225 85.9655 34.586 86.156 34.9419H81.0827L73.563 24.1135L78.6864 19.6017H82.346V13.2751H77.007C76.2813 13.2715 75.5633 13.4236 74.9015 13.7212C74.2383 14.0136 73.6123 14.3839 73.0366 14.8241C72.4529 15.2742 71.9033 15.7668 71.3923 16.298L69.8883 17.8471L63.8475 23.8929V17.7368C63.8403 17.0767 63.6512 16.4314 63.3011 15.8719C62.9243 15.2477 62.4504 14.6876 61.8974 14.2125C61.3185 13.7175 60.6698 13.3104 59.9723 13.0044C59.2918 12.6961 58.5537 12.5355 57.8066 12.5331H51.6154V18.8447H53.6908C54.0846 18.8535 54.4627 19.0008 54.7586 19.2608C54.9043 19.363 55.025 19.4968 55.1118 19.6522C55.1986 19.8075 55.2493 19.9805 55.26 20.1581V33.5733C55.2549 33.7585 55.207 33.9399 55.1201 34.1035C55.0331 34.267 54.9094 34.4081 54.7586 34.5158C54.4455 34.7871 54.045 34.9366 53.6307 34.9369H50.2769C50.0688 34.9362 49.8632 34.8911 49.6739 34.8047C49.4846 34.7182 49.3158 34.5924 49.179 34.4356C48.882 34.1627 48.7023 33.7854 48.6777 33.3828V21.8977C48.7179 20.5641 48.4444 19.2398 47.8793 18.0312C47.3142 16.8227 46.4733 15.7637 45.4242 14.9394C44.3601 14.1196 43.1483 13.512 41.8548 13.1497C40.4052 12.7395 38.9046 12.537 37.3981 12.5482C36.0386 12.5172 34.6833 12.712 33.3876 13.1247C32.3705 13.462 31.4053 13.9395 30.5201 14.5434C29.8005 15.0387 29.1541 15.6327 28.6 16.308C28.1989 16.7985 27.832 17.3161 27.5021 17.8571V16.9096C27.4955 16.4689 27.3801 16.0367 27.1663 15.6513C26.9353 15.221 26.6375 14.8301 26.284 14.4933C25.9205 14.1463 25.5085 13.8541 25.0607 13.626C24.6275 13.4 24.1457 13.283 23.6571 13.2851H15.6862V19.5916H17.6914C17.9054 19.5975 18.116 19.6472 18.31 19.7378C18.504 19.8283 18.6774 19.9577 18.8194 20.118C18.9688 20.2513 19.0901 20.4131 19.1762 20.5938C19.2623 20.7746 19.3114 20.9708 19.3207 21.1708V33.4881C19.3136 33.6813 19.2652 33.8708 19.1787 34.0437C19.0922 34.2167 18.9697 34.3691 18.8194 34.4907C18.5182 34.7874 18.1141 34.9562 17.6914 34.962H17.2152H11.6756C11.2978 34.942 10.9408 34.783 10.673 34.5158C10.5325 34.4152 10.4151 34.2859 10.3287 34.1363C10.2422 33.9867 10.1887 33.8204 10.1717 33.6485V17.7418C10.1731 17.1843 10.0694 16.6315 9.86589 16.1125C9.65792 15.5771 9.33638 15.0931 8.92342 14.6938C8.45439 14.257 7.90426 13.9163 7.30417 13.6912C6.56397 13.4149 5.77794 13.2822 4.98809 13.3001H0.250676V19.6067H0.0451355C0.455844 19.6086 0.849655 19.7704 1.14302 20.0579C1.29182 20.1742 1.41366 20.3213 1.5002 20.4892C1.58674 20.6571 1.63592 20.8417 1.64433 21.0304V35.5435C1.65484 36.2251 1.81034 36.8967 2.10051 37.5136C2.39725 38.1856 2.79824 38.8066 3.28864 39.3535C3.77162 39.8966 4.33862 40.3586 4.96804 40.7221C5.54692 41.075 6.21016 41.2654 6.88808 41.2735H22.5492C23.2318 41.2666 23.9026 41.0946 24.5043 40.7722C25.1448 40.4462 25.7301 40.0216 26.2388 39.5139C26.7373 39.0242 27.1507 38.455 27.4621 37.8295C27.7443 37.2595 27.8869 36.6306 27.8781 35.9947V25.2164C27.8781 23.0774 28.5181 21.4649 29.7982 20.3787C31.1415 19.2686 32.844 18.6874 34.5857 18.7444C35.6643 18.6926 36.7403 18.8917 37.729 19.3259C38.4032 19.6438 38.9823 20.133 39.4084 20.7447C39.7626 21.2812 39.9827 21.895 40.0501 22.5344C40.1102 23.166 40.1403 23.7425 40.1403 24.2689V35.9445C40.1502 36.5846 40.3062 37.2139 40.5965 37.7844C41.2115 39.054 42.2163 40.0938 43.464 40.7521C44.072 41.0816 44.7527 41.2539 45.4442 41.2535H58.4583C59.1255 41.2517 59.7835 41.0992 60.3834 40.8073C61.0089 40.5134 61.5842 40.1226 62.0879 39.6493C62.5855 39.1934 63.0084 38.6622 63.3411 38.0751C63.6542 37.5586 63.827 36.9694 63.8425 36.3656V32.4203L67.3817 29.267L72.3247 36.6815C72.7132 37.269 73.1509 37.8224 73.6331 38.3358C74.145 38.8792 74.7073 39.3727 75.3126 39.8097C75.9227 40.2473 76.5887 40.6014 77.2928 40.8624C77.9859 41.1197 78.7191 41.2521 79.4584 41.2535H94.3425C96.1596 41.7567 98.0366 42.0114 99.9221 42.0104C101.992 42.0294 104.038 41.5714 105.903 40.6719C107.632 39.8644 109.092 38.5766 110.109 36.9622V37.6991C110.104 38.2121 110.252 38.7148 110.535 39.1429C110.82 39.582 111.181 39.9658 111.603 40.2759C112.03 40.5917 112.504 40.8402 113.006 41.0128C113.447 41.175 113.911 41.2631 114.38 41.2735H121.624V34.9369H119.443ZM108.525 30.1293C108.326 31.1113 107.943 32.0469 107.397 32.8865C106.795 33.7732 105.975 34.4898 105.015 34.967C103.746 35.503 102.383 35.7792 101.005 35.7792C99.6273 35.7792 98.2635 35.503 96.9944 34.967C96.0474 34.4835 95.2384 33.7677 94.6433 32.8865C94.0965 32.0469 93.7137 31.1113 93.5153 30.1293C93.3192 29.1858 93.2167 28.2253 93.2095 27.2618C93.2184 26.3165 93.3209 25.3745 93.5153 24.4494C93.7137 23.4657 94.0964 22.5285 94.6433 21.6871C95.2412 20.802 96.049 20.0787 96.9944 19.5816C98.2585 19.0263 99.6242 18.7395 101.005 18.7395C102.386 18.7395 103.751 19.0263 105.015 19.5816C105.973 20.0726 106.792 20.7967 107.397 21.6871C107.944 22.5285 108.326 23.4657 108.525 24.4494C108.719 25.3745 108.822 26.3165 108.83 27.2618C108.823 28.2253 108.721 29.1858 108.525 30.1293Z" fill="#E5441A"></path><path d="M1.36357 47.57C1.35886 47.3942 1.28922 47.2263 1.16807 47.0988C1.11643 47.0298 1.05001 46.9733 0.973663 46.9334C0.897319 46.8935 0.812997 46.8712 0.726906 46.8682H8.96864e-06V44.9732H6.01579C6.49784 44.9655 6.97714 45.0471 7.42948 45.2139C7.8311 45.3643 8.19415 45.6024 8.49227 45.9107C8.78773 46.2287 9.01468 46.6041 9.15903 47.0136C9.32118 47.4791 9.40091 47.9694 9.39465 48.4624C9.3836 48.7851 9.33993 49.1059 9.2643 49.4199C9.1659 49.8635 8.97537 50.2816 8.70506 50.6469C8.43475 51.0122 8.09069 51.3166 7.69518 51.5404C7.15141 51.829 6.54058 51.9674 5.92554 51.9415H3.61949V53.7162C3.61584 53.9771 3.5542 54.234 3.43902 54.4681C3.3204 54.7242 3.16128 54.9595 2.96778 55.1649C2.77955 55.3688 2.55734 55.5384 2.31106 55.6663C2.08515 55.7908 1.83208 55.858 1.57413 55.8618H-0.0150452V54.042H0.726906C0.887694 54.0257 1.03549 53.9464 1.13799 53.8214C1.25909 53.715 1.33449 53.566 1.34853 53.4053L1.36357 47.57ZM5.43926 50.0766C5.77638 50.0948 6.11263 50.0275 6.41683 49.8811C6.62095 49.7687 6.79339 49.6066 6.91815 49.4099C7.01915 49.238 7.08237 49.0466 7.10363 48.8484C7.10363 48.6579 7.13371 48.4975 7.13371 48.3772C7.15468 48.1616 7.12323 47.9442 7.04206 47.7434C6.96088 47.5427 6.83237 47.3645 6.66749 47.2241C6.20463 46.9516 5.66877 46.829 5.13347 46.8732H3.62952V50.0766H5.43926Z" fill="#472E07"></path><path d="M12.6331 53.29C12.6348 53.349 12.6486 53.4071 12.6736 53.4605C12.6986 53.514 12.7343 53.5618 12.7785 53.6009C12.8172 53.6455 12.8649 53.6816 12.9185 53.7066C12.972 53.7317 13.0302 53.7452 13.0893 53.7462H14.1521V55.8718H12.1469C11.9452 55.87 11.7472 55.8183 11.5704 55.7214C11.3812 55.6137 11.2117 55.4747 11.069 55.3103C10.9063 55.132 10.7757 54.9267 10.683 54.7038C10.5784 54.4705 10.5254 54.2174 10.5276 53.9618V47.2191C10.5242 47.1108 10.4814 47.0074 10.4073 46.9284C10.3749 46.8873 10.3338 46.8539 10.2871 46.8305C10.2403 46.8071 10.1889 46.7943 10.1366 46.793H9.46985V44.9732H11.2846C11.485 44.9698 11.6831 45.0163 11.8611 45.1086C12.0264 45.1941 12.173 45.3117 12.2923 45.4545C12.4041 45.5917 12.4938 45.7457 12.558 45.9107C12.6144 46.0563 12.645 46.2107 12.6482 46.3669L12.6331 53.29Z" fill="#472E07"></path><path d="M22.6945 53.656C22.699 53.7557 22.7401 53.8503 22.8098 53.9217C22.8394 53.9606 22.8772 53.9924 22.9206 54.0149C22.9639 54.0375 23.0117 54.0501 23.0605 54.052H23.6019V55.8718H21.8022C21.6849 55.8683 21.5692 55.8428 21.4613 55.7966C21.3336 55.746 21.2151 55.6749 21.1104 55.586C21.0034 55.4938 20.9134 55.3835 20.8447 55.2602C20.7743 55.1311 20.738 54.9861 20.7394 54.8391V54.6285C20.5033 55.0785 20.1409 55.4496 19.6967 55.6963C19.2394 55.9588 18.72 56.0939 18.1927 56.0873C17.6808 56.0897 17.1722 56.005 16.6888 55.8367C16.2301 55.6712 15.814 55.4058 15.4706 55.0597C15.102 54.6837 14.8227 54.2297 14.6534 53.7312C14.4448 53.1199 14.3447 52.4769 14.3577 51.8312C14.3429 51.1863 14.4588 50.5451 14.6986 49.9462C14.9031 49.4454 15.2125 48.9941 15.6059 48.6228C15.9842 48.273 16.4317 48.0066 16.9194 47.8407C17.4208 47.667 17.9478 47.5789 18.4785 47.58C18.693 47.5835 18.9065 47.6104 19.1151 47.6602C19.3336 47.7099 19.5468 47.7805 19.7518 47.8708C19.9509 47.9605 20.1406 48.0697 20.3183 48.1967C20.4802 48.3093 20.6254 48.4444 20.7494 48.5977V47.8708H22.6895L22.6945 53.656ZM20.4236 51.8312C20.4246 51.5641 20.4028 51.2975 20.3584 51.0341C20.309 50.7549 20.2141 50.4856 20.0777 50.237C19.9333 49.9879 19.7302 49.778 19.4861 49.6254C19.176 49.4658 18.8323 49.3825 18.4835 49.3825C18.1347 49.3825 17.791 49.4658 17.4809 49.6254C17.2396 49.7783 17.0399 49.9884 16.8993 50.237C16.7607 50.4846 16.6657 50.7543 16.6186 51.0341C16.5703 51.3005 16.5452 51.5705 16.5434 51.8412C16.5447 52.1202 16.5698 52.3986 16.6186 52.6734C16.6673 52.9528 16.7622 53.2222 16.8993 53.4705C17.0391 53.7157 17.2393 53.9211 17.4809 54.067C17.7919 54.2235 18.1353 54.305 18.4835 54.305C18.8317 54.305 19.1751 54.2235 19.4861 54.067C19.7305 53.9213 19.934 53.7161 20.0777 53.4705C20.2126 53.2212 20.3074 52.9522 20.3584 52.6734C20.4044 52.3951 20.4262 52.1133 20.4236 51.8312Z" fill="#472E07"></path><path d="M24.9204 50.0716C24.9166 49.9594 24.872 49.8525 24.7951 49.7708C24.7629 49.7255 24.7209 49.6881 24.6724 49.6612C24.6238 49.6343 24.5698 49.6186 24.5143 49.6154H24.013V47.7956H26.0183C26.1409 47.7945 26.2612 47.8293 26.3642 47.8959C26.4793 47.9619 26.5826 48.0466 26.67 48.1465C26.7599 48.245 26.8342 48.3566 26.8905 48.4774C26.9433 48.5922 26.9707 48.717 26.9708 48.8434V49.1191C27.0498 48.9612 27.142 48.8103 27.2465 48.6679C27.544 48.2522 27.9572 47.9332 28.4346 47.7505C28.7548 47.6299 29.0952 47.572 29.4372 47.58C29.812 47.578 30.1845 47.6372 30.5401 47.7555C30.8671 47.8601 31.1691 48.0307 31.4274 48.2568C31.6825 48.4941 31.8841 48.7829 32.019 49.1041C32.1727 49.4739 32.2479 49.8717 32.2396 50.2721V53.5808C32.2453 53.6916 32.2876 53.7974 32.3599 53.8816C32.3891 53.9275 32.429 53.9656 32.4761 53.9927C32.5233 54.0197 32.5763 54.0349 32.6306 54.037H33.1319V55.8568H31.3873C31.2096 55.8584 31.0353 55.8079 30.886 55.7114C30.7293 55.6136 30.5889 55.4918 30.4699 55.3504C30.3489 55.1976 30.2493 55.029 30.1742 54.8491C30.1022 54.6812 30.0647 54.5005 30.0639 54.3177V50.9489C30.0639 50.7985 30.0639 50.628 30.0388 50.4476C30.0228 50.2714 29.9699 50.1006 29.8834 49.9463C29.7799 49.7759 29.635 49.6346 29.4623 49.5352C29.2224 49.4125 28.9543 49.3555 28.6852 49.3697C28.4655 49.363 28.2467 49.4013 28.0424 49.4823C27.8381 49.5634 27.6525 49.6854 27.4971 49.841C27.3222 50.0273 27.1874 50.2476 27.1012 50.4882C27.0149 50.7288 26.9791 50.9846 26.9958 51.2397V54.3478C26.9955 54.529 26.9579 54.7081 26.8855 54.8742C26.8087 55.0554 26.7057 55.2243 26.5797 55.3755C26.4565 55.5184 26.3109 55.6403 26.1486 55.7365C25.9996 55.8335 25.8251 55.8841 25.6473 55.8818H23.9529V54.042H24.4542C24.5077 54.0399 24.5603 54.0268 24.6086 54.0035C24.6569 53.9802 24.6999 53.9473 24.7349 53.9067C24.812 53.8291 24.8568 53.7252 24.8602 53.6159L24.9204 50.0716Z" fill="#472E07"></path><path d="M40.9976 53.5056C40.8773 53.9466 40.6731 54.3602 40.396 54.7238C40.1548 55.0405 39.8595 55.3121 39.5237 55.5259C39.2147 55.7223 38.8762 55.8679 38.5211 55.957C38.1747 56.0414 37.8197 56.0851 37.4633 56.0873C36.929 56.0907 36.3971 56.0164 35.8841 55.8668C35.4074 55.7253 34.971 55.4728 34.6108 55.1298C34.2262 54.7455 33.9361 54.2769 33.7636 53.7613C33.5376 53.0864 33.4324 52.3771 33.4528 51.6658C33.4528 51.5053 33.4528 51.2898 33.4879 51.0291C33.5194 50.7401 33.5781 50.4548 33.6633 50.1769C33.7611 49.8582 33.8922 49.5507 34.0543 49.2594C34.2358 48.9446 34.4698 48.6632 34.7462 48.4273C35.0602 48.1616 35.4205 47.956 35.8089 47.8207C36.2913 47.6492 36.8011 47.5676 37.3129 47.58C37.7381 47.5849 38.1609 47.6439 38.5712 47.7555C39.0277 47.8797 39.4485 48.1099 39.7994 48.4273C40.2062 48.8061 40.5246 49.27 40.7319 49.7858C41.0032 50.5025 41.1293 51.2659 41.1028 52.0317V52.4127H35.5884C35.6035 52.6011 35.6286 52.7885 35.6636 52.9742C35.7053 53.2053 35.7904 53.4264 35.9142 53.6259C36.0526 53.8492 36.2437 54.0351 36.4707 54.1673C36.7806 54.3249 37.1261 54.3991 37.4733 54.3829C37.7679 54.3841 38.0578 54.3099 38.3155 54.1673C38.4399 54.0972 38.5486 54.0023 38.6349 53.8885C38.7211 53.7747 38.783 53.6443 38.8168 53.5056H40.9976ZM38.9071 51.0341C38.8873 50.7522 38.8142 50.4766 38.6915 50.222C38.5936 50.0319 38.4609 49.8619 38.3005 49.7207C38.1543 49.5926 37.9838 49.4954 37.7992 49.4349C37.627 49.3821 37.4479 49.3551 37.2678 49.3547C37.0541 49.3424 36.8403 49.3758 36.6406 49.4528C36.4409 49.5297 36.2599 49.6484 36.1097 49.8009C35.8164 50.1563 35.6411 50.5944 35.6084 51.0542L38.9071 51.0341Z" fill="#472E07"></path><path d="M44.4215 47.7956H45.74V49.2996H44.4215V52.9742C44.4169 53.0627 44.4169 53.1514 44.4215 53.2399C44.4312 53.3364 44.4638 53.4293 44.5168 53.5106C44.5843 53.6063 44.6759 53.6825 44.7825 53.7312C44.9407 53.7984 45.112 53.8293 45.2838 53.8214H45.6748V55.947H45.5094H44.8577H44.3112C44.0333 55.9543 43.7575 55.898 43.5046 55.7825C43.2518 55.6669 43.0287 55.4952 42.8524 55.2802C42.4369 54.7205 42.2359 54.0304 42.2859 53.3351V49.2996H41.1931V47.7956H42.2859V44.9732H44.4215V47.7956Z" fill="#472E07"></path><path d="M57.6311 53.5407C57.6861 53.6994 57.7964 53.8329 57.942 53.9167C58.0813 54.0156 58.2474 54.0698 58.4182 54.0721H59.1752V55.8919H57.3253C56.9152 55.9003 56.5166 55.7555 56.2074 55.4858C55.9007 55.2219 55.6791 54.873 55.5707 54.4832L55.3101 53.6309H51.2995L51.0389 54.4832C50.9207 54.8698 50.6987 55.2165 50.3972 55.4858C50.0898 55.7551 49.6929 55.9 49.2843 55.8919H47.4294V54.042H48.2165C48.381 54.0388 48.5404 53.9845 48.6726 53.8866C48.8099 53.8026 48.9156 53.6757 48.9734 53.5256L51.8961 44.9632H54.6383L57.6311 53.5407ZM51.9011 51.761H54.6734L53.3299 47.4497H53.2948L51.9011 51.761Z" fill="#472E07"></path><path d="M66.7801 53.9467C66.7831 54.0024 66.7981 54.0568 66.824 54.1061C66.85 54.1554 66.8863 54.1985 66.9305 54.2325C67.0122 54.3139 67.1212 54.3621 67.2363 54.3678H67.6875V56.1926H66.0232C65.7017 56.2028 65.3854 56.1097 65.1208 55.9269C65.0047 55.8496 64.9098 55.7444 64.845 55.6209C64.7802 55.4974 64.7475 55.3595 64.7498 55.2201V54.6736H64.7197C64.6395 54.804 64.5443 54.9544 64.434 55.1148C64.3107 55.2864 64.1658 55.4414 64.0029 55.576C63.8079 55.7313 63.5897 55.8548 63.3562 55.942C63.07 56.0441 62.7676 56.0934 62.4638 56.0873C61.9336 56.1071 61.4071 55.9919 60.9336 55.7525C60.4601 55.5131 60.0552 55.1574 59.7567 54.7188C59.4642 54.2892 59.2518 53.8103 59.1301 53.305C58.9985 52.7686 58.9329 52.2181 58.9346 51.6658C58.9381 51.2078 58.9953 50.7518 59.105 50.3072C59.2209 49.835 59.4158 49.3858 59.6815 48.9787C59.955 48.5716 60.3144 48.2294 60.7343 47.9761C61.2246 47.6999 61.781 47.5629 62.3435 47.58C62.8206 47.5676 63.2936 47.6708 63.7221 47.8808C64.1129 48.0844 64.4302 48.4052 64.6295 48.7982H64.6596V46.1412C64.6561 45.9261 64.6917 45.712 64.7649 45.5096C64.8277 45.3361 64.923 45.1762 65.0456 45.0384C65.1558 44.916 65.2908 44.8186 65.4416 44.7526C65.5767 44.6892 65.7236 44.655 65.8728 44.6523H67.6875V46.4721H67.2213C67.1636 46.4741 67.1068 46.4875 67.0543 46.5116C67.0018 46.5357 66.9546 46.57 66.9155 46.6125C66.8736 46.6508 66.84 46.6972 66.8167 46.7489C66.7935 46.8006 66.781 46.8566 66.7801 46.9133V53.9467ZM61.1153 51.6808C61.1016 52.1094 61.1558 52.5374 61.2757 52.9491C61.3559 53.2369 61.4979 53.5038 61.6918 53.7312C61.8455 53.9108 62.0421 54.0488 62.2633 54.1322C62.4619 54.2078 62.6725 54.2468 62.8849 54.2475C63.0442 54.2429 63.2024 54.2194 63.3562 54.1773C63.5803 54.1211 63.7881 54.0129 63.9628 53.8615C64.1837 53.6551 64.355 53.4015 64.4641 53.1196C64.6269 52.6963 64.702 52.2443 64.6847 51.7911C64.7387 51.1395 64.5612 50.4898 64.1833 49.9563C64.0284 49.7712 63.8342 49.623 63.6148 49.5224C63.3954 49.4218 63.1563 49.3713 62.915 49.3747C62.6521 49.3522 62.3877 49.3959 62.146 49.5018C61.9042 49.6078 61.6929 49.7726 61.5314 49.9813C61.2221 50.4919 61.0769 51.0851 61.1153 51.6808Z" fill="#472E07"></path><path d="M76.0846 49.6154C75.9748 49.6173 75.8675 49.6484 75.7737 49.7056C75.68 49.7556 75.6071 49.8373 75.5682 49.9362L73.5379 55.8718H71.312L69.3068 49.9513C69.271 49.8539 69.204 49.7711 69.1163 49.7157C69.0309 49.6516 68.9273 49.6165 68.8205 49.6154H68.0184V47.7956H69.5624C69.7348 47.7979 69.9051 47.8336 70.0638 47.9009C70.2358 47.9734 70.3949 48.0733 70.535 48.1967C70.6839 48.3271 70.8123 48.4792 70.916 48.6478C71.0203 48.8172 71.098 49.0014 71.1466 49.1943L72.4199 53.7462H72.4951L73.8286 49.1943C73.8801 49.0034 73.9687 48.8245 74.0893 48.6679C74.3301 48.3329 74.6601 48.0724 75.0418 47.9159C75.2191 47.8389 75.41 47.798 75.6033 47.7956H76.9368V49.6154H76.0846Z" fill="#472E07"></path><path d="M84.7022 53.5056C84.4797 54.3338 83.9558 55.0489 83.2333 55.5108C82.9237 55.706 82.5854 55.8514 82.2307 55.942C81.8861 56.0264 81.5327 56.0701 81.1779 56.0723C80.642 56.0757 80.1084 56.0014 79.5938 55.8517C79.1175 55.7091 78.6814 55.4567 78.3204 55.1148C77.9377 54.729 77.6479 54.2609 77.4732 53.7462C77.2497 53.0708 77.1446 52.3619 77.1624 51.6507C77.1624 51.4903 77.1624 51.2747 77.2025 51.014C77.2321 50.7252 77.2892 50.4398 77.373 50.1618C77.4748 49.8438 77.6074 49.5366 77.769 49.2444C77.9471 48.9287 78.1796 48.6469 78.4558 48.4122C78.7706 48.1476 79.1306 47.9421 79.5186 47.8056C80.0013 47.6352 80.5108 47.5537 81.0225 47.565C81.4477 47.5704 81.8704 47.6293 82.2808 47.7405C82.7356 47.8654 83.1546 48.0955 83.504 48.4122C83.914 48.7884 84.2328 49.253 84.4365 49.7708C84.7102 50.4868 84.8363 51.2507 84.8075 52.0167V52.3977H79.293C79.3081 52.586 79.3332 52.7735 79.3682 52.9592C79.4123 53.1896 79.4972 53.4103 79.6188 53.6109C79.7591 53.8344 79.9518 54.0203 80.1803 54.1523C80.4902 54.3098 80.8357 54.3841 81.1829 54.3678C81.4773 54.3678 81.767 54.2937 82.0252 54.1523C82.1489 54.0813 82.257 53.9861 82.3431 53.8724C82.4292 53.7587 82.4916 53.6288 82.5265 53.4905L84.7022 53.5056ZM82.6117 51.0341C82.5934 50.7525 82.522 50.477 82.4012 50.222C82.3015 50.0317 82.1672 49.8616 82.0051 49.7207C81.8604 49.5906 81.6894 49.4932 81.5038 49.4349C81.3333 49.3821 81.1559 49.355 80.9774 49.3547C80.7638 49.3424 80.5499 49.3758 80.3502 49.4528C80.1505 49.5297 79.9695 49.6484 79.8194 49.8009C79.5242 50.1553 79.3487 50.594 79.3181 51.0542L82.6117 51.0341Z" fill="#472E07"></path><path d="M86.0808 50.0716C86.0771 49.9584 86.0305 49.8509 85.9504 49.7708C85.9199 49.7251 85.879 49.6872 85.8311 49.6602C85.7832 49.6332 85.7296 49.6179 85.6747 49.6154H85.1734V47.7956H87.1787C87.3013 47.7945 87.4216 47.8293 87.5246 47.8959C87.6397 47.9619 87.743 48.0466 87.8304 48.1465C87.9187 48.2451 87.9914 48.3567 88.0459 48.4774C88.1001 48.5919 88.1292 48.7167 88.1312 48.8434V49.1191C88.2101 48.9622 88.3006 48.8114 88.4019 48.6679C88.7029 48.2535 89.1172 47.9349 89.595 47.7505C89.9152 47.6299 90.2556 47.572 90.5976 47.58C90.9724 47.578 91.3449 47.6372 91.7005 47.7555C92.0313 47.8617 92.3349 48.0388 92.5903 48.2742C92.8457 48.5097 93.0468 48.798 93.1794 49.1191C93.3332 49.4889 93.4083 49.8867 93.4 50.2872V53.5958C93.4057 53.7066 93.448 53.8124 93.5203 53.8966C93.5495 53.9425 93.5894 53.9806 93.6365 54.0077C93.6837 54.0348 93.7367 54.05 93.791 54.052H94.2923V55.8718H92.5478C92.37 55.8735 92.1957 55.8229 92.0464 55.7264C91.8888 55.6299 91.7482 55.5079 91.6304 55.3655C91.5075 55.2139 91.4078 55.045 91.3346 54.8642C91.2626 54.6962 91.2251 54.5155 91.2243 54.3328V50.9639C91.2243 50.8135 91.2243 50.6431 91.1992 50.4626C91.1836 50.2857 91.1288 50.1144 91.0388 49.9613C90.9387 49.7901 90.7951 49.6483 90.6227 49.5502C90.3828 49.4276 90.1147 49.3705 89.8457 49.3848C89.6252 49.3785 89.4059 49.417 89.2008 49.498C88.9957 49.579 88.8092 49.7008 88.6525 49.856C88.4828 50.0449 88.3531 50.2662 88.2712 50.5066C88.1894 50.747 88.1571 51.0015 88.1763 51.2547V54.3629C88.1759 54.544 88.1384 54.7232 88.066 54.8892C87.9875 55.0696 87.8846 55.2382 87.7602 55.3905C87.637 55.5334 87.4914 55.6554 87.3291 55.7515C87.1801 55.8486 87.0056 55.8992 86.8277 55.8969H85.1333V54.042H85.6346C85.6875 54.0401 85.7394 54.0271 85.7869 54.0038C85.8344 53.9804 85.8765 53.9474 85.9103 53.9067C85.9501 53.8691 85.9821 53.8241 86.0045 53.7742C86.0268 53.7244 86.0391 53.6705 86.0407 53.6159L86.0808 50.0716Z" fill="#472E07"></path><path d="M97.6411 47.7956H98.9596V49.2996H97.6411V52.9742C97.6365 53.0627 97.6365 53.1514 97.6411 53.2399C97.6504 53.3373 97.6849 53.4306 97.7414 53.5106C97.8068 53.6063 97.8969 53.6825 98.0021 53.7312C98.1605 53.7979 98.3317 53.8287 98.5034 53.8214H98.8994V55.947H98.734H98.0823H97.5359C97.2572 55.9543 96.9806 55.8981 96.727 55.7826C96.4733 55.6671 96.2493 55.4953 96.072 55.2802C95.6589 54.7194 95.4582 54.0301 95.5055 53.3351V49.2996H94.4127V47.7956H95.5055V44.9732H97.6261L97.6411 47.7956Z" fill="#472E07"></path><path d="M107.397 53.6109C107.398 53.6682 107.411 53.7248 107.434 53.7773C107.457 53.8297 107.49 53.8771 107.532 53.9167C107.571 53.9587 107.619 53.9923 107.671 54.0156C107.724 54.0389 107.78 54.0512 107.838 54.052H108.304V55.8718H106.519C106.405 55.8675 106.292 55.8473 106.184 55.8116C106.049 55.7686 105.922 55.7042 105.808 55.6211C105.683 55.5324 105.577 55.42 105.497 55.2903C105.407 55.1389 105.361 54.965 105.366 54.789V54.4731C105.182 54.9588 104.844 55.3709 104.404 55.6462C103.956 55.9352 103.433 56.0868 102.9 56.0824C102.525 56.0848 102.153 56.0255 101.797 55.9069C101.469 55.7972 101.172 55.6117 100.93 55.3655C100.674 55.1034 100.479 54.7886 100.358 54.443C100.213 54.012 100.144 53.5592 100.153 53.1045V50.0315C100.148 49.9294 100.105 49.8329 100.032 49.7608C100.003 49.7197 99.9648 49.6857 99.9206 49.6614C99.8763 49.6371 99.8271 49.6231 99.7767 49.6204H99.2453V47.8006H101.07C101.326 47.8241 101.568 47.9235 101.766 48.0861C101.965 48.2488 102.11 48.4671 102.183 48.713C102.228 48.8592 102.252 49.0112 102.253 49.1642V52.8088C102.244 53.0682 102.284 53.3269 102.374 53.5708C102.44 53.7433 102.549 53.8966 102.689 54.0169C102.82 54.1228 102.972 54.1981 103.136 54.2375C103.3 54.2774 103.468 54.2976 103.637 54.2977C103.82 54.2967 104.002 54.2697 104.178 54.2175C104.375 54.1601 104.557 54.059 104.71 53.9217C104.882 53.763 105.018 53.57 105.111 53.3552C105.226 53.0724 105.281 52.7683 105.271 52.4629V50.0315C105.266 49.9266 105.223 49.827 105.151 49.7507C105.121 49.7083 105.082 49.6732 105.037 49.648C104.992 49.6228 104.942 49.6082 104.89 49.6054H104.364V47.7856H106.163C106.325 47.7855 106.485 47.8193 106.633 47.885C106.78 47.9506 106.912 48.0466 107.021 48.1666C107.145 48.3011 107.242 48.4589 107.306 48.6309C107.37 48.803 107.399 48.9859 107.392 49.1692L107.397 53.6109Z" fill="#472E07"></path><path d="M109.502 50.0315C109.5 49.9258 109.457 49.8251 109.382 49.7507C109.349 49.7111 109.307 49.679 109.261 49.6565C109.214 49.634 109.163 49.6217 109.111 49.6204H108.61V47.8006H110.244C110.397 47.803 110.548 47.8336 110.69 47.8909C110.998 48.0076 111.258 48.2249 111.427 48.5075C111.504 48.6327 111.546 48.7765 111.548 48.9236V49.1993H111.578C111.688 48.9938 111.803 48.7982 111.929 48.6027C112.051 48.417 112.198 48.2484 112.365 48.1014C112.543 47.9477 112.747 47.8256 112.966 47.7405C113.229 47.6421 113.508 47.5944 113.788 47.6001H113.994L114.2 47.6252V49.7808C114.102 49.7601 114.003 49.75 113.904 49.7507H113.603C113.26 49.7361 112.919 49.7942 112.6 49.9212C112.369 50.0225 112.166 50.1792 112.009 50.3774C111.868 50.5631 111.769 50.7768 111.718 51.004C111.669 51.2245 111.643 51.4498 111.643 51.6758V55.8818H109.522L109.502 50.0315Z" fill="#472E07"></path><path d="M121.91 53.5056C121.791 53.9463 121.589 54.3599 121.313 54.7238C121.071 55.0394 120.776 55.3108 120.441 55.5259C120.132 55.7227 119.794 55.8683 119.438 55.957C119.094 56.0414 118.74 56.0851 118.385 56.0874C117.85 56.0907 117.316 56.0164 116.801 55.8668C116.326 55.7229 115.89 55.4707 115.528 55.1299C115.145 54.744 114.855 54.2759 114.681 53.7613C114.457 53.0859 114.352 52.377 114.37 51.6658C114.37 51.5054 114.37 51.2898 114.41 51.0291C114.439 50.7397 114.498 50.4542 114.586 50.1769C114.683 49.8582 114.814 49.5507 114.977 49.2595C115.155 48.9425 115.389 48.6606 115.668 48.4273C115.981 48.1617 116.339 47.956 116.726 47.8207C117.209 47.6503 117.718 47.5687 118.23 47.58C118.655 47.5854 119.078 47.6444 119.488 47.7555C119.943 47.8804 120.362 48.1105 120.712 48.4273C121.122 48.8035 121.44 49.2681 121.644 49.7858C121.918 50.5018 122.044 51.2657 122.015 52.0317V52.4127H116.501C116.516 52.6011 116.541 52.7885 116.576 52.9742C116.62 53.2046 116.705 53.4253 116.826 53.6259C116.967 53.8494 117.159 54.0353 117.388 54.1673C117.698 54.3249 118.043 54.3992 118.391 54.3829C118.685 54.3828 118.975 54.3087 119.233 54.1673C119.356 54.0963 119.465 54.0011 119.551 53.8874C119.637 53.7737 119.699 53.6439 119.734 53.5056H121.91ZM119.819 51.0341C119.801 50.7525 119.73 50.477 119.609 50.222C119.511 50.0306 119.376 49.8603 119.213 49.7207C119.068 49.5911 118.897 49.4937 118.711 49.4349C118.539 49.3825 118.36 49.3554 118.18 49.3547C117.966 49.3424 117.752 49.3758 117.553 49.4528C117.353 49.5297 117.172 49.6484 117.022 49.8009C116.729 50.1565 116.554 50.5945 116.521 51.0542L119.819 51.0341Z" fill="#472E07"></path><path d="M5.63979 10.0867C8.20082 10.0867 10.277 8.01058 10.277 5.44954C10.277 2.88851 8.20082 0.812378 5.63979 0.812378C3.07875 0.812378 1.00262 2.88851 1.00262 5.44954C1.00262 8.01058 3.07875 10.0867 5.63979 10.0867Z" fill="#E5441A"></path></g><defs><clipPath id="clip0_12399_5115"><rect width="122" height="55.3752" fill="white" transform="translate(0 0.812378)"></rect></clipPath></defs></svg>